# xmcd
#
# Track frame offsets:
#	150
#	14732
#	29757
#	42671
#	55949
#	70075
#	83451
#	97670
#	111649
#	124950
#	136500
#	147994
#	160862
#	173607
#	188822
#	202037
#	216877
#	230315
#	245163
#	260431
#
# Disc length: 3669 seconds
#
# Revision: 1
# Processed by: cddbd v1.4PL0 Copyright (c) Steve Scherf et al.
# Submitted via: audiograbber 1.81.01
#
DISCID=230e5314
DTITLE=Jimmie Rodgers - Standing On The Corner - Disc 2
DYEAR=2002
DGENRE=Country
TTITLE0=Blue Yodel No. 3
TTITLE1=Away Out On The Mountain
TTITLE2=Frankie And Johnny
TTITLE3=T.B. Blues
TTITLE4=Blue Yodel No. 6
TTITLE5=Somewhere Below The Mason Dixon Line
TTITLE6=Take Me Back Again
TTITLE7=My Little Lady
TTITLE8=The Wonderful City
TTITLE9=Blue Yodel No. 5
TTITLE10=My Rough and Rowdy Ways
TTITLE11=Those Gambler's Blues
TTITLE12=Let Me Be Your Sidetrack
TTITLE13=Mother The Queen Of My Heart
TTITLE14=Pistol Packin' Papa
TTITLE15=The Carter Family And Jimmie Rodgers In Texas
TTITLE16=Blue Yodel No. 8
TTITLE17=Looking For A New Mama
TTITLE18=Blue Yodel No. 12
TTITLE19=Jimmie Rodgers Last Blue Yodel
EXTD=
EXTT0=
EXTT1=
EXTT2=
EXTT3=
EXTT4=
EXTT5=
EXTT6=
EXTT7=
EXTT8=
EXTT9=
EXTT10=
EXTT11=
EXTT12=
EXTT13=
EXTT14=
EXTT15=
EXTT16=
EXTT17=
EXTT18=
EXTT19=
PLAYORDER=
